# xmcd
#
# Track frame offsets: 
#        150
#        21075
#        44295
#        70860
#        89240
#        107200
#        133150
#        153982
#        172785
#        191442
#
# Disc length: 2843 seconds
#
# Revision: 1
# Processed by: cddbd v1.5.2PL0 Copyright (c) Steve Scherf et al.
# Submitted via: ExactAudioCopyFreeDBPlugin 1.0
#
DISCID=830b190a
DTITLE=黃鶯鶯 - 讓愛自由
DYEAR=1990
DGENRE=Slow Rock
TTITLE0=哭砂
TTITLE1=寧願鎖上
TTITLE2=風的心
TTITLE3=不問不說
TTITLE4=你為何不要
TTITLE5=讓愛自由
TTITLE6=三年三月到九天九夜
TTITLE7=再見還是不見
TTITLE8=聽你說你的愛
TTITLE9=藏好一個春天
EXTD=\n
EXTT0=
EXTT1=
EXTT2=
EXTT3=
EXTT4=
EXTT5=
EXTT6=
EXTT7=
EXTT8=
EXTT9=
PLAYORDER=
